<svg width="14" height="14" viewBox="0 0 14 14" fill="none" xmlns="http://www.w3.org/2000/svg">
<path d="M13.7038 13.248L9.51731 8.96875C10.3519 7.95703 10.7692 6.79036 10.7692 5.46875C10.7692 4.47526 10.5292 3.55924 10.049 2.7207C9.56891 1.88216 8.91378 1.21908 8.08365 0.731445C7.25353 0.243815 6.3516 0 5.37788 0C4.40417 0 3.50449 0.243815 2.67885 0.731445C1.85321 1.21908 1.20032 1.88216 0.720192 2.7207C0.240064 3.55924 0 4.47526 0 5.46875C0 6.46224 0.240064 7.37826 0.720192 8.2168C1.20032 9.05534 1.85321 9.71842 2.67885 10.2061C3.50449 10.6937 4.40641 10.9375 5.38462 10.9375C6.7218 10.9375 7.89744 10.4909 8.91154 9.59766L13.0846 13.8633C13.1744 13.9544 13.2776 14 13.3942 14C13.5109 14 13.6119 13.9567 13.6971 13.8701C13.7824 13.7835 13.825 13.6787 13.825 13.5557C13.825 13.4326 13.7846 13.3301 13.7038 13.248ZM5.38462 10.0762C4.55897 10.0762 3.7984 9.86882 3.10288 9.4541C2.40737 9.03939 1.85769 8.47884 1.45385 7.77246C1.05 7.06608 0.848077 6.29818 0.848077 5.46875C0.848077 4.63932 1.05 3.87142 1.45385 3.16504C1.85769 2.45866 2.40737 1.89811 3.10288 1.4834C3.7984 1.06868 4.55673 0.861328 5.37788 0.861328C6.19904 0.861328 6.95737 1.06868 7.65288 1.4834C8.3484 1.89811 8.89808 2.45866 9.30192 3.16504C9.70577 3.87142 9.90769 4.63932 9.90769 5.46875C9.90769 5.82422 9.86731 6.17513 9.78654 6.52148C9.70577 6.86784 9.59135 7.19141 9.44327 7.49219C9.29519 7.79297 9.11795 8.0778 8.91154 8.34668C8.70513 8.61556 8.4718 8.85482 8.21154 9.06445C7.95128 9.27409 7.67308 9.4541 7.37692 9.60449C7.08077 9.75488 6.76218 9.87109 6.42115 9.95312C6.08013 10.0352 5.73462 10.0762 5.38462 10.0762Z" fill="white"/>
</svg>
